<svg width="64" height="64" viewBox="0 0 64 64" fill="none" xmlns="http://www.w3.org/2000/svg">
<rect width="64" height="64" fill="#1D4ED8"/>
<path d="M47.75 16.25H35.5C34.2043 16.2544 32.9566 16.741 32 17.615C31.0434 16.741 29.7957 16.2544 28.5 16.25H16.25C15.7859 16.25 15.3408 16.4344 15.0126 16.7626C14.6844 17.0908 14.5 17.5359 14.5 18V44.25C14.5 44.7141 14.6844 45.1592 15.0126 45.4874C15.3408 45.8156 15.7859 46 16.25 46H26.3265C27.2543 46.0021 28.1437 46.3707 28.801 47.0255L30.7628 48.9873C30.7785 49.003 30.7995 49.0083 30.8152 49.024C30.9657 49.164 31.1337 49.2865 31.3297 49.367H31.3333C31.7602 49.5438 32.2398 49.5438 32.6667 49.367H32.6703C32.8663 49.2865 33.0343 49.1623 33.1848 49.024C33.2005 49.0083 33.2215 49.003 33.2372 48.9873L35.199 47.0255C35.8563 46.3707 36.7457 46.0021 37.6735 46H47.75C48.2141 46 48.6592 45.8156 48.9874 45.4874C49.3156 45.1592 49.5 44.7141 49.5 44.25V18C49.5 17.5359 49.3156 17.0908 48.9874 16.7626C48.6592 16.4344 48.2141 16.25 47.75 16.25V16.25ZM46 42.5H37.6735C36.275 42.504 34.9094 42.9237 33.75 43.7057V21.5C33.75 20.5358 34.534 19.75 35.5 19.75H46V42.5Z" fill="white"/>
</svg>
